<svg width="69" height="16" viewBox="0 0 69 16" fill="none" xmlns="http://www.w3.org/2000/svg">
<path d="M4.48 15.2C3.74667 15.2 3.08 15.02 2.48 14.66C1.89333 14.2867 1.42667 13.7933 1.08 13.18C0.733333 12.5667 0.56 11.88 0.56 11.12L0.58 4.88C0.58 4.14667 0.746667 3.48 1.08 2.88C1.42667 2.26667 1.89333 1.78 2.48 1.42C3.08 1.04667 3.74667 0.86 4.48 0.86C5.21333 0.86 5.87333 1.04 6.46 1.4C7.04667 1.76 7.51333 2.24667 7.86 2.86C8.20667 3.46 8.38 4.13333 8.38 4.88V5.8C8.38 5.85333 8.35333 5.88 8.3 5.88H6.06C6.00667 5.88 5.98 5.85333 5.98 5.8V4.88C5.98 4.44 5.83333 4.06 5.54 3.74C5.26 3.42 4.90667 3.26 4.48 3.26C4 3.26 3.63333 3.42667 3.38 3.76C3.12667 4.08 3 4.45333 3 4.88V11.12C3 11.6133 3.14 12.0133 3.42 12.32C3.71333 12.6267 4.06667 12.78 4.48 12.78C4.90667 12.78 5.26 12.6133 5.54 12.28C5.83333 11.9333 5.98 11.5467 5.98 11.12V10.2C5.98 10.1467 6.00667 10.12 6.06 10.12H8.32C8.37333 10.12 8.4 10.1467 8.4 10.2V11.12C8.4 11.88 8.22 12.5667 7.86 13.18C7.51333 13.7933 7.04667 14.2867 6.46 14.66C5.87333 15.02 5.21333 15.2 4.48 15.2ZM9.9425 15C9.88917 15 9.8625 14.9667 9.8625 14.9L9.8825 1.18C9.8825 1.11333 9.91583 1.08 9.9825 1.08H12.2025C12.2692 1.08 12.3025 1.11333 12.3025 1.18L12.2825 12.54H16.4025C16.4692 12.54 16.5025 12.5733 16.5025 12.64V14.9C16.5025 14.9667 16.4692 15 16.4025 15H9.9425ZM17.9117 15C17.8451 15 17.8117 14.9667 17.8117 14.9L17.8317 1.16C17.8317 1.10667 17.8584 1.08 17.9117 1.08H20.1517C20.2051 1.08 20.2317 1.10667 20.2317 1.16L20.2517 14.9C20.2517 14.9667 20.2251 15 20.1717 15H17.9117Z" fill="#1D7344"/>
<path d="M22.1109 15C22.0443 15 22.0109 14.9667 22.0109 14.9L22.0509 1.16C22.0509 1.10667 22.0776 1.08 22.1309 1.08L25.8709 1.06C26.6043 1.04667 27.2709 1.22 27.8709 1.58C28.4843 1.94 28.9709 2.42667 29.3309 3.04C29.6909 3.64 29.8709 4.30667 29.8709 5.04V10.78C29.8709 11.5533 29.6843 12.26 29.3109 12.9C28.9376 13.5267 28.4376 14.0267 27.8109 14.4C27.1843 14.7733 26.4776 14.9667 25.6909 14.98L22.1109 15ZM24.4509 12.54H25.6909C26.1843 12.54 26.5976 12.3667 26.9309 12.02C27.2776 11.6733 27.4509 11.26 27.4509 10.78V5.02C27.4509 4.59333 27.2909 4.22667 26.9709 3.92C26.6643 3.6 26.2976 3.44667 25.8709 3.46L24.4709 3.48L24.4509 12.54ZM31.5245 15C31.4712 15 31.4445 14.9667 31.4445 14.9L31.4645 1.16C31.4645 1.10667 31.4912 1.08 31.5445 1.08H37.9645C38.0179 1.08 38.0445 1.11333 38.0445 1.18V3.42C38.0445 3.47333 38.0179 3.5 37.9645 3.5H33.8645V6.62H37.9645C38.0179 6.62 38.0445 6.64667 38.0445 6.7L38.0645 8.96C38.0645 9.01333 38.0379 9.04 37.9845 9.04H33.8645V12.54H37.9845C38.0379 12.54 38.0645 12.5733 38.0645 12.64V14.92C38.0645 14.9733 38.0379 15 37.9845 15H31.5245ZM40.023 15C39.9163 15 39.863 14.9533 39.863 14.86L39.843 1.24C39.843 1.13333 39.8963 1.08 40.003 1.08H41.803L45.183 8.96L45.083 1.24C45.083 1.13333 45.143 1.08 45.263 1.08H47.243C47.323 1.08 47.363 1.13333 47.363 1.24L47.383 14.88C47.383 14.96 47.3496 15 47.283 15H45.523L42.063 7.64L42.203 14.84C42.203 14.9467 42.143 15 42.023 15H40.023ZM51.1203 15C51.067 15 51.0403 14.9667 51.0403 14.9V3.5H48.4403C48.3736 3.5 48.3403 3.46667 48.3403 3.4L48.3603 1.16C48.3603 1.10667 48.387 1.08 48.4403 1.08H56.0403C56.107 1.08 56.1403 1.10667 56.1403 1.16V3.4C56.1403 3.46667 56.1136 3.5 56.0603 3.5H53.4403L53.4603 14.9C53.4603 14.9667 53.4336 15 53.3803 15H51.1203ZM57.2281 15C57.1615 15 57.1281 14.9667 57.1281 14.9L57.1481 1.16C57.1481 1.10667 57.1748 1.08 57.2281 1.08H59.4681C59.5215 1.08 59.5481 1.10667 59.5481 1.16L59.5681 14.9C59.5681 14.9667 59.5415 15 59.4881 15H57.2281ZM64.7273 15.2C64.0073 15.2 63.3473 15.02 62.7473 14.66C62.1607 14.2867 61.6873 13.8 61.3273 13.2C60.9807 12.5867 60.8073 11.9133 60.8073 11.18V10.26C60.8073 10.1933 60.8407 10.16 60.9073 10.16H63.1473C63.2007 10.16 63.2273 10.1933 63.2273 10.26V11.18C63.2273 11.62 63.374 12 63.6673 12.32C63.9607 12.6267 64.314 12.78 64.7273 12.78C65.1407 12.78 65.494 12.62 65.7873 12.3C66.0807 11.98 66.2273 11.6067 66.2273 11.18C66.2273 10.6867 65.9073 10.26 65.2673 9.9C65.054 9.78 64.7207 9.59333 64.2673 9.34C63.814 9.08667 63.3873 8.84667 62.9873 8.62C62.254 8.19333 61.7073 7.66 61.3473 7.02C61.0007 6.36667 60.8273 5.63333 60.8273 4.82C60.8273 4.07333 61.0073 3.40667 61.3673 2.82C61.7273 2.22 62.2007 1.74667 62.7873 1.4C63.3873 1.05333 64.034 0.879999 64.7273 0.879999C65.434 0.879999 66.0807 1.06 66.6673 1.42C67.2673 1.76667 67.7407 2.24 68.0873 2.84C68.4473 3.42667 68.6273 4.08667 68.6273 4.82V6.46C68.6273 6.51333 68.6007 6.54 68.5473 6.54H66.3073C66.254 6.54 66.2273 6.51333 66.2273 6.46L66.2073 4.82C66.2073 4.35333 66.0607 3.97333 65.7673 3.68C65.474 3.38667 65.1273 3.24 64.7273 3.24C64.314 3.24 63.9607 3.4 63.6673 3.72C63.374 4.02667 63.2273 4.39333 63.2273 4.82C63.2273 5.26 63.3207 5.62667 63.5073 5.92C63.694 6.21333 64.034 6.49333 64.5273 6.76C64.594 6.8 64.7207 6.87333 64.9073 6.98C65.1073 7.07333 65.3207 7.18667 65.5473 7.32C65.774 7.44 65.974 7.54667 66.1473 7.64C66.334 7.73333 66.4473 7.79333 66.4873 7.82C67.154 8.19333 67.6807 8.65333 68.0673 9.2C68.454 9.73333 68.6473 10.3933 68.6473 11.18C68.6473 11.94 68.4673 12.6267 68.1073 13.24C67.7607 13.84 67.2873 14.32 66.6873 14.68C66.1007 15.0267 65.4473 15.2 64.7273 15.2Z" fill="#53A678"/>
</svg>
